<?xml version="1.0" standalone="no"?>
<!DOCTYPE svg PUBLIC "-//W3C//DTD SVG 20010904//EN"
 "http://www.w3.org/TR/2001/REC-SVG-20010904/DTD/svg10.dtd">
<svg version="1.0" xmlns="http://www.w3.org/2000/svg"
 width="32" height="32" viewBox="0 0 48.000000 48.000000"
 preserveAspectRatio="xMidYMid meet">

<g transform="translate(0.000000,48.000000) scale(0.100000,-0.100000)"
fill="#000000" stroke="none">
<path d="M108 414 c-35 -18 -58 -62 -58 -109 0 -24 4 -35 15 -35 11 0 15 11
15 36 0 26 8 43 29 65 29 28 32 29 130 29 91 0 102 -2 127 -24 21 -17 29 -35
33 -72 7 -58 25 -61 29 -5 4 50 -19 96 -58 116 -40 21 -224 20 -262 -1z"/>
<path d="M324 349 c-10 -17 13 -36 27 -22 12 12 4 33 -11 33 -5 0 -12 -5 -16
-11z"/>
<path d="M191 326 c-87 -48 -50 -186 49 -186 51 0 100 49 100 99 0 75 -83 124
-149 87z m96 -38 c29 -27 29 -65 1 -95 -27 -29 -65 -29 -95 -1 -29 27 -29 65
-1 95 27 29 65 29 95 1z"/>
<path d="M56 233 c-12 -12 -6 -94 9 -123 25 -48 61 -60 175 -60 115 0 150 12
175 61 17 32 17 108 0 112 -5 1 -13 -20 -16 -47 -4 -37 -12 -55 -33 -72 -25
-22 -36 -24 -127 -24 -98 0 -101 1 -130 29 -23 24 -29 38 -29 75 0 43 -10 63
-24 49z"/>
</g>
</svg>
