<?xml version="1.0" standalone="no"?>
<!DOCTYPE svg PUBLIC "-//W3C//DTD SVG 20010904//EN"
 "http://www.w3.org/TR/2001/REC-SVG-20010904/DTD/svg10.dtd">
<svg version="1.0" xmlns="http://www.w3.org/2000/svg"
 width="30" height="30" viewBox="0 0 96.000000 96.000000"
 preserveAspectRatio="xMidYMid meet">

<g transform="translate(0.000000,96.000000) scale(0.100000,-0.100000)"
fill="#000000" stroke="none">
<path d="M158 785 c-7 -15 -20 -25 -32 -25 -12 0 -28 -5 -36 -10 -12 -8 -11
-13 9 -34 18 -19 22 -31 16 -55 -7 -35 9 -41 45 -19 16 10 24 10 40 0 37 -23
53 -16 46 20 -5 24 -1 37 16 55 19 20 20 25 8 33 -8 5 -24 10 -36 10 -12 0
-25 10 -32 25 -6 14 -16 25 -22 25 -6 0 -16 -11 -22 -25z"/>
<path d="M412 748 c-16 -16 -15 -43 2 -57 9 -8 79 -11 231 -9 195 3 219 5 229
21 8 12 8 22 0 35 -10 15 -34 17 -230 20 -162 2 -223 -1 -232 -10z"/>
<path d="M158 545 c-7 -15 -20 -25 -32 -25 -12 0 -28 -5 -36 -10 -12 -8 -11
-13 9 -34 18 -19 22 -31 16 -55 -7 -35 9 -41 45 -19 16 10 24 10 40 0 37 -23
53 -16 46 20 -5 24 -1 37 16 55 19 20 20 25 8 33 -8 5 -24 10 -36 10 -12 0
-25 10 -32 25 -6 14 -16 25 -22 25 -6 0 -16 -11 -22 -25z"/>
<path d="M412 508 c-16 -16 -15 -43 2 -57 9 -8 79 -11 231 -9 195 3 219 5 229
20 8 13 8 23 0 35 -10 16 -34 18 -230 21 -162 2 -223 -1 -232 -10z"/>
<path d="M158 305 c-7 -15 -20 -25 -32 -25 -12 0 -28 -5 -36 -10 -12 -8 -11
-13 9 -34 18 -19 22 -31 16 -55 -7 -35 9 -41 45 -19 16 10 24 10 40 0 37 -23
53 -16 46 20 -5 24 -1 37 16 55 19 20 20 25 8 33 -8 5 -24 10 -36 10 -12 0
-25 10 -32 25 -6 14 -16 25 -22 25 -6 0 -16 -11 -22 -25z"/>
<path d="M412 268 c-16 -16 -15 -43 2 -57 9 -8 79 -11 231 -9 195 3 219 5 229
20 8 13 8 23 0 35 -10 16 -34 18 -230 21 -162 2 -223 -1 -232 -10z"/>
</g>
</svg>
